<svg xmlns="http://www.w3.org/2000/svg" xmlns:xlink="http://www.w3.org/1999/xlink" width="1710" zoomAndPan="magnify" viewBox="0 0 1282.5 337.499995" height="450" preserveAspectRatio="xMidYMid meet" version="1.0"><defs><g/></defs><g fill="#404145" fill-opacity="1"><g transform="translate(22.897542, 222.967626)"><g><path d="M 83.34375 0 L 56.671875 0 L -4.453125 -114.015625 L 40.890625 -114.015625 L 68.6875 -52.453125 L 96.015625 -114.015625 L 123.140625 -114.015625 L 150.46875 -52.453125 L 178.25 -114.015625 L 223.59375 -114.015625 L 162.46875 0 L 135.796875 0 L 109.578125 -58.90625 Z M 83.34375 0 "/></g></g></g><g fill="#404145" fill-opacity="1"><g transform="translate(221.09994, 222.967626)"><g><path d="M 128.6875 -51.5625 L 46.015625 -51.5625 C 46.015625 -43.5625 48.601562 -37.632812 53.78125 -33.78125 C 58.96875 -29.925781 64.601562 -28 70.6875 -28 C 77.050781 -28 82.082031 -28.851562 85.78125 -30.5625 C 89.488281 -32.269531 93.71875 -35.640625 98.46875 -40.671875 L 126.90625 -26.453125 C 115.050781 -6.597656 95.347656 3.328125 67.796875 3.328125 C 50.609375 3.328125 35.863281 -2.554688 23.5625 -14.328125 C 11.257812 -26.109375 5.109375 -40.296875 5.109375 -56.890625 C 5.109375 -73.492188 11.257812 -87.722656 23.5625 -99.578125 C 35.863281 -111.429688 50.609375 -117.359375 67.796875 -117.359375 C 85.867188 -117.359375 100.570312 -112.132812 111.90625 -101.6875 C 123.25 -91.238281 128.921875 -76.3125 128.921875 -56.90625 C 128.921875 -54.238281 128.84375 -52.457031 128.6875 -51.5625 Z M 47.125 -73.34375 L 90.46875 -73.34375 C 89.570312 -79.269531 87.234375 -83.828125 83.453125 -87.015625 C 79.679688 -90.203125 74.832031 -91.796875 68.90625 -91.796875 C 62.382812 -91.796875 57.195312 -90.09375 53.34375 -86.6875 C 49.488281 -83.28125 47.414062 -78.832031 47.125 -73.34375 Z M 47.125 -73.34375 "/></g></g></g><g fill="#404145" fill-opacity="1"><g transform="translate(334.195919, 222.967626)"><g><path d="M 130.6875 -99.796875 C 141.363281 -88.085938 146.703125 -73.785156 146.703125 -56.890625 C 146.703125 -40.003906 141.363281 -25.742188 130.6875 -14.109375 C 120.019531 -2.484375 106.460938 3.328125 90.015625 3.328125 C 74.898438 3.328125 62.453125 -2.078125 52.671875 -12.890625 L 52.234375 -12.890625 L 52.234375 0 L 13.34375 0 L 13.34375 -191.15625 L 52.671875 -191.15625 L 52.671875 -103.125 C 62.453125 -112.613281 74.898438 -117.359375 90.015625 -117.359375 C 106.460938 -117.359375 120.019531 -111.503906 130.6875 -99.796875 Z M 97.5625 -37.671875 C 102.457031 -42.640625 104.90625 -49.050781 104.90625 -56.90625 C 104.90625 -64.757812 102.347656 -71.203125 97.234375 -76.234375 C 92.128906 -81.273438 85.796875 -83.796875 78.234375 -83.796875 C 70.828125 -83.796875 64.566406 -81.273438 59.453125 -76.234375 C 54.335938 -71.203125 51.78125 -64.757812 51.78125 -56.90625 C 51.78125 -49.195312 54.265625 -42.820312 59.234375 -37.78125 C 64.203125 -32.75 70.535156 -30.234375 78.234375 -30.234375 C 86.234375 -30.234375 92.675781 -32.710938 97.5625 -37.671875 Z M 97.5625 -37.671875 "/></g></g></g><g fill="#404145" fill-opacity="1"><g transform="translate(465.068666, 222.967626)"><g><path d="M 13.34375 0 L 13.34375 -114.015625 L 52.671875 -114.015625 L 52.671875 -102.015625 L 53.125 -102.015625 C 63.34375 -112.242188 74.234375 -117.359375 85.796875 -117.359375 C 94.085938 -117.359375 101.863281 -115.648438 109.125 -112.234375 C 116.394531 -108.828125 121.878906 -103.570312 125.578125 -96.46875 C 137.140625 -110.394531 149.734375 -117.359375 163.359375 -117.359375 C 175.515625 -117.359375 185.960938 -113.945312 194.703125 -107.125 C 203.441406 -100.3125 207.8125 -89.644531 207.8125 -75.125 L 207.8125 0 L 168.484375 0 L 168.484375 -64.453125 C 168.484375 -70.523438 166.8125 -75.597656 163.46875 -79.671875 C 160.132812 -83.753906 155.132812 -85.796875 148.46875 -85.796875 C 142.695312 -85.796875 138.289062 -84.050781 135.25 -80.5625 C 132.207031 -77.082031 130.539062 -72.898438 130.25 -68.015625 L 130.25 0 L 90.90625 0 L 90.90625 -64.453125 C 90.90625 -70.523438 89.238281 -75.597656 85.90625 -79.671875 C 82.570312 -83.753906 77.570312 -85.796875 70.90625 -85.796875 C 64.832031 -85.796875 60.273438 -83.90625 57.234375 -80.125 C 54.191406 -76.34375 52.671875 -71.863281 52.671875 -66.6875 L 52.671875 0 Z M 13.34375 0 "/></g></g></g><g fill="#404145" fill-opacity="1"><g transform="translate(663.048816, 222.967626)"><g><path d="M 21.109375 -14.109375 C 10.441406 -25.742188 5.109375 -40.003906 5.109375 -56.890625 C 5.109375 -73.785156 10.441406 -88.085938 21.109375 -99.796875 C 31.785156 -111.503906 45.347656 -117.359375 61.796875 -117.359375 C 76.910156 -117.359375 89.351562 -112.613281 99.125 -103.125 L 99.125 -114.015625 L 138.46875 -114.015625 L 138.46875 0 L 99.578125 0 L 99.578125 -12.890625 L 99.125 -12.890625 C 89.351562 -2.078125 76.910156 3.328125 61.796875 3.328125 C 45.347656 3.328125 31.785156 -2.484375 21.109375 -14.109375 Z M 54.5625 -76.234375 C 49.445312 -71.203125 46.890625 -64.757812 46.890625 -56.90625 C 46.890625 -49.050781 49.332031 -42.640625 54.21875 -37.671875 C 59.113281 -32.710938 65.5625 -30.234375 73.5625 -30.234375 C 81.269531 -30.234375 87.601562 -32.75 92.5625 -37.78125 C 97.53125 -42.820312 100.015625 -49.195312 100.015625 -56.90625 C 100.015625 -64.757812 97.457031 -71.203125 92.34375 -76.234375 C 87.238281 -81.273438 80.976562 -83.796875 73.5625 -83.796875 C 66.007812 -83.796875 59.675781 -81.273438 54.5625 -76.234375 Z M 54.5625 -76.234375 "/></g></g></g><g fill="#404145" fill-opacity="1"><g transform="translate(793.921586, 222.967626)"><g><path d="M 143.578125 -114.015625 L 89.34375 -59.5625 L 148.921875 0 L 98.234375 0 L 52.671875 -45.5625 L 52.671875 0 L 13.34375 0 L 13.34375 -191.15625 L 52.671875 -191.15625 L 52.671875 -74.234375 L 92.46875 -114.015625 Z M 143.578125 -114.015625 "/></g></g></g><g fill="#404145" fill-opacity="1"><g transform="translate(916.572515, 222.967626)"><g><path d="M 128.6875 -51.5625 L 46.015625 -51.5625 C 46.015625 -43.5625 48.601562 -37.632812 53.78125 -33.78125 C 58.96875 -29.925781 64.601562 -28 70.6875 -28 C 77.050781 -28 82.082031 -28.851562 85.78125 -30.5625 C 89.488281 -32.269531 93.71875 -35.640625 98.46875 -40.671875 L 126.90625 -26.453125 C 115.050781 -6.597656 95.347656 3.328125 67.796875 3.328125 C 50.609375 3.328125 35.863281 -2.554688 23.5625 -14.328125 C 11.257812 -26.109375 5.109375 -40.296875 5.109375 -56.890625 C 5.109375 -73.492188 11.257812 -87.722656 23.5625 -99.578125 C 35.863281 -111.429688 50.609375 -117.359375 67.796875 -117.359375 C 85.867188 -117.359375 100.570312 -112.132812 111.90625 -101.6875 C 123.25 -91.238281 128.921875 -76.3125 128.921875 -56.90625 C 128.921875 -54.238281 128.84375 -52.457031 128.6875 -51.5625 Z M 47.125 -73.34375 L 90.46875 -73.34375 C 89.570312 -79.269531 87.234375 -83.828125 83.453125 -87.015625 C 79.679688 -90.203125 74.832031 -91.796875 68.90625 -91.796875 C 62.382812 -91.796875 57.195312 -90.09375 53.34375 -86.6875 C 49.488281 -83.28125 47.414062 -78.832031 47.125 -73.34375 Z M 47.125 -73.34375 "/></g></g></g><g fill="#404145" fill-opacity="1"><g transform="translate(1029.668451, 222.967626)"><g><path d="M 13.34375 0 L 13.34375 -114.015625 L 52.671875 -114.015625 L 52.671875 -97.578125 L 53.125 -97.578125 C 53.414062 -98.171875 53.894531 -98.910156 54.5625 -99.796875 C 55.226562 -100.679688 56.671875 -102.234375 58.890625 -104.453125 C 61.117188 -106.679688 63.492188 -108.6875 66.015625 -110.46875 C 68.535156 -112.25 71.796875 -113.84375 75.796875 -115.25 C 79.796875 -116.65625 83.867188 -117.359375 88.015625 -117.359375 C 92.316406 -117.359375 96.539062 -116.765625 100.6875 -115.578125 C 104.832031 -114.390625 107.867188 -113.203125 109.796875 -112.015625 L 112.90625 -110.25 L 96.46875 -76.90625 C 91.570312 -81.050781 84.753906 -83.125 76.015625 -83.125 C 71.273438 -83.125 67.195312 -82.085938 63.78125 -80.015625 C 60.375 -77.941406 57.96875 -75.421875 56.5625 -72.453125 C 55.15625 -69.492188 54.15625 -66.976562 53.5625 -64.90625 C 52.96875 -62.832031 52.671875 -61.203125 52.671875 -60.015625 L 52.671875 0 Z M 13.34375 0 "/></g></g></g><g fill="#404145" fill-opacity="1"><g transform="translate(1119.432351, 222.967626)"><g><path d="M 13.34375 0 L 13.34375 -114.015625 L 52.671875 -114.015625 L 52.671875 -97.578125 L 53.125 -97.578125 C 53.414062 -98.171875 53.894531 -98.910156 54.5625 -99.796875 C 55.226562 -100.679688 56.671875 -102.234375 58.890625 -104.453125 C 61.117188 -106.679688 63.492188 -108.6875 66.015625 -110.46875 C 68.535156 -112.25 71.796875 -113.84375 75.796875 -115.25 C 79.796875 -116.65625 83.867188 -117.359375 88.015625 -117.359375 C 92.316406 -117.359375 96.539062 -116.765625 100.6875 -115.578125 C 104.832031 -114.390625 107.867188 -113.203125 109.796875 -112.015625 L 112.90625 -110.25 L 96.46875 -76.90625 C 91.570312 -81.050781 84.753906 -83.125 76.015625 -83.125 C 71.273438 -83.125 67.195312 -82.085938 63.78125 -80.015625 C 60.375 -77.941406 57.96875 -75.421875 56.5625 -72.453125 C 55.15625 -69.492188 54.15625 -66.976562 53.5625 -64.90625 C 52.96875 -62.832031 52.671875 -61.203125 52.671875 -60.015625 L 52.671875 0 Z M 13.34375 0 "/></g></g></g><g fill="#00bf63" fill-opacity="1"><g transform="translate(1209.303898, 222.967626)"><g><path d="M 38.671875 -47.5625 C 45.785156 -47.5625 51.820312 -45.078125 56.78125 -40.109375 C 61.75 -35.148438 64.234375 -29.113281 64.234375 -22 C 64.234375 -15.039062 61.75 -9.078125 56.78125 -4.109375 C 51.820312 0.847656 45.785156 3.328125 38.671875 3.328125 C 31.710938 3.328125 25.75 0.847656 20.78125 -4.109375 C 15.820312 -9.078125 13.34375 -15.039062 13.34375 -22 C 13.34375 -29.113281 15.820312 -35.148438 20.78125 -40.109375 C 25.75 -45.078125 31.710938 -47.5625 38.671875 -47.5625 Z M 38.671875 -47.5625 "/></g></g></g></svg>