<svg xmlns="http://www.w3.org/2000/svg" xmlns:xlink="http://www.w3.org/1999/xlink" width="696" zoomAndPan="magnify" viewBox="0 0 522 522.000001" height="696" preserveAspectRatio="xMidYMid meet" version="1.0"><defs><filter x="0%" y="0%" width="100%" height="100%" id="4e881cfb9a"><feColorMatrix values="0 0 0 0 1 0 0 0 0 1 0 0 0 0 1 0 0 0 1 0" color-interpolation-filters="sRGB"/></filter><clipPath id="37c16d6d40"><path d="M 19.316406 18.816406 L 502.890625 18.816406 L 502.890625 502.390625 L 19.316406 502.390625 Z M 19.316406 18.816406 " clip-rule="nonzero"/></clipPath><clipPath id="c976f6c8e8"><path d="M 235 159.144531 L 344 159.144531 L 344 362 L 235 362 Z M 235 159.144531 " clip-rule="nonzero"/></clipPath><clipPath id="0e67c63b82"><path d="M 111.144531 159.144531 L 231 159.144531 L 231 362 L 111.144531 362 Z M 111.144531 159.144531 " clip-rule="nonzero"/></clipPath><clipPath id="4df0ff9f0a"><path d="M 178 159.144531 L 410.570312 159.144531 L 410.570312 362.003906 L 178 362.003906 Z M 178 159.144531 " clip-rule="nonzero"/></clipPath><mask id="931111bfe4"><g filter="url(#4e881cfb9a)"><rect x="-52.2" width="626.4" fill="#000000" y="-52.2" height="626.400002" fill-opacity="0.8"/></g></mask><clipPath id="c920bf0413"><path d="M 0.238281 0.144531 L 232.570312 0.144531 L 232.570312 203 L 0.238281 203 Z M 0.238281 0.144531 " clip-rule="nonzero"/></clipPath><clipPath id="a02970e856"><rect x="0" width="233" y="0" height="204"/></clipPath></defs><g clip-path="url(#37c16d6d40)"><path fill="#e6e8ea" d="M 502.679688 260.5 C 502.679688 264.453125 502.582031 268.40625 502.390625 272.359375 C 502.195312 276.308594 501.902344 280.253906 501.515625 284.1875 C 501.128906 288.125 500.644531 292.050781 500.0625 295.960938 C 499.484375 299.875 498.808594 303.769531 498.035156 307.648438 C 497.265625 311.527344 496.398438 315.386719 495.4375 319.222656 C 494.476562 323.058594 493.421875 326.871094 492.273438 330.65625 C 491.125 334.441406 489.882812 338.195312 488.550781 341.917969 C 487.21875 345.644531 485.796875 349.332031 484.28125 352.988281 C 482.769531 356.640625 481.167969 360.257812 479.476562 363.832031 C 477.785156 367.40625 476.007812 370.9375 474.140625 374.425781 C 472.277344 377.914062 470.328125 381.355469 468.296875 384.75 C 466.261719 388.140625 464.148438 391.480469 461.949219 394.769531 C 459.75 398.058594 457.476562 401.292969 455.117188 404.46875 C 452.761719 407.644531 450.328125 410.761719 447.820312 413.820312 C 445.3125 416.878906 442.730469 419.871094 440.074219 422.804688 C 437.417969 425.734375 434.691406 428.597656 431.894531 431.394531 C 429.097656 434.191406 426.234375 436.917969 423.300781 439.574219 C 420.371094 442.230469 417.378906 444.8125 414.320312 447.320312 C 411.261719 449.832031 408.144531 452.261719 404.96875 454.621094 C 401.789062 456.976562 398.558594 459.253906 395.269531 461.449219 C 391.980469 463.648438 388.640625 465.761719 385.246094 467.796875 C 381.855469 469.828125 378.414062 471.777344 374.925781 473.644531 C 371.4375 475.507812 367.90625 477.285156 364.332031 478.976562 C 360.753906 480.667969 357.140625 482.269531 353.484375 483.785156 C 349.832031 485.296875 346.140625 486.71875 342.417969 488.054688 C 338.695312 489.386719 334.941406 490.625 331.15625 491.773438 C 327.371094 492.921875 323.558594 493.976562 319.722656 494.9375 C 315.886719 495.898438 312.027344 496.765625 308.148438 497.535156 C 304.269531 498.308594 300.371094 498.984375 296.460938 499.566406 C 292.546875 500.144531 288.625 500.628906 284.6875 501.015625 C 280.75 501.40625 276.808594 501.695312 272.855469 501.890625 C 268.90625 502.082031 264.953125 502.179688 261 502.179688 C 257.042969 502.179688 253.089844 502.082031 249.140625 501.890625 C 245.1875 501.695312 241.246094 501.40625 237.308594 501.015625 C 233.375 500.628906 229.449219 500.144531 225.535156 499.566406 C 221.625 498.984375 217.726562 498.308594 213.847656 497.535156 C 209.96875 496.765625 206.113281 495.898438 202.273438 494.9375 C 198.4375 493.976562 194.628906 492.921875 190.84375 491.773438 C 187.058594 490.625 183.300781 489.386719 179.578125 488.054688 C 175.855469 486.71875 172.164062 485.296875 168.511719 483.785156 C 164.855469 482.269531 161.242188 480.667969 157.667969 478.976562 C 154.089844 477.285156 150.558594 475.507812 147.070312 473.644531 C 143.582031 471.777344 140.140625 469.828125 136.75 467.796875 C 133.355469 465.761719 130.015625 463.648438 126.726562 461.449219 C 123.4375 459.253906 120.207031 456.976562 117.027344 454.621094 C 113.851562 452.261719 110.734375 449.832031 107.675781 447.320312 C 104.621094 444.8125 101.625 442.230469 98.695312 439.574219 C 95.765625 436.917969 92.902344 434.191406 90.105469 431.394531 C 87.308594 428.597656 84.582031 425.734375 81.925781 422.804688 C 79.269531 419.871094 76.683594 416.878906 74.175781 413.820312 C 71.667969 410.761719 69.234375 407.644531 66.878906 404.46875 C 64.523438 401.292969 62.246094 398.058594 60.046875 394.769531 C 57.851562 391.480469 55.734375 388.140625 53.703125 384.75 C 51.667969 381.355469 49.71875 377.914062 47.855469 374.425781 C 45.988281 370.9375 44.210938 367.40625 42.519531 363.832031 C 40.828125 360.257812 39.226562 356.640625 37.714844 352.988281 C 36.199219 349.332031 34.777344 345.644531 33.445312 341.917969 C 32.113281 338.195312 30.871094 334.441406 29.722656 330.65625 C 28.574219 326.871094 27.519531 323.058594 26.558594 319.222656 C 25.597656 315.386719 24.734375 311.527344 23.960938 307.648438 C 23.1875 303.769531 22.511719 299.875 21.933594 295.960938 C 21.351562 292.050781 20.867188 288.125 20.480469 284.1875 C 20.09375 280.253906 19.800781 276.308594 19.609375 272.359375 C 19.414062 268.40625 19.316406 264.453125 19.316406 260.5 C 19.316406 256.542969 19.414062 252.589844 19.609375 248.640625 C 19.800781 244.691406 20.09375 240.746094 20.480469 236.8125 C 20.867188 232.875 21.351562 228.949219 21.933594 225.039062 C 22.511719 221.125 23.1875 217.230469 23.960938 213.351562 C 24.734375 209.46875 25.597656 205.613281 26.558594 201.777344 C 27.519531 197.9375 28.574219 194.128906 29.722656 190.34375 C 30.871094 186.558594 32.113281 182.804688 33.445312 179.078125 C 34.777344 175.355469 36.199219 171.667969 37.714844 168.011719 C 39.226562 164.359375 40.828125 160.742188 42.519531 157.167969 C 44.210938 153.589844 45.988281 150.058594 47.855469 146.570312 C 49.71875 143.082031 51.667969 139.644531 53.703125 136.25 C 55.734375 132.859375 57.851562 129.515625 60.046875 126.226562 C 62.246094 122.941406 64.523438 119.707031 66.878906 116.53125 C 69.234375 113.351562 71.667969 110.234375 74.175781 107.179688 C 76.683594 104.121094 79.269531 101.125 81.925781 98.195312 C 84.582031 95.265625 87.308594 92.402344 90.105469 89.605469 C 92.902344 86.808594 95.765625 84.082031 98.695312 81.425781 C 101.625 78.769531 104.621094 76.1875 107.675781 73.675781 C 110.734375 71.167969 113.851562 68.734375 117.027344 66.378906 C 120.207031 64.023438 123.4375 61.746094 126.726562 59.546875 C 130.015625 57.351562 133.355469 55.234375 136.75 53.203125 C 140.140625 51.167969 143.582031 49.21875 147.070312 47.355469 C 150.558594 45.492188 154.089844 43.714844 157.667969 42.023438 C 161.242188 40.332031 164.855469 38.726562 168.511719 37.214844 C 172.164062 35.703125 175.855469 34.277344 179.578125 32.945312 C 183.300781 31.613281 187.058594 30.371094 190.84375 29.226562 C 194.628906 28.078125 198.4375 27.023438 202.273438 26.0625 C 206.113281 25.101562 209.96875 24.234375 213.847656 23.460938 C 217.726562 22.691406 221.625 22.015625 225.535156 21.433594 C 229.449219 20.851562 233.375 20.371094 237.308594 19.980469 C 241.246094 19.59375 245.1875 19.304688 249.140625 19.109375 C 253.089844 18.914062 257.042969 18.816406 261 18.816406 C 264.953125 18.816406 268.90625 18.914062 272.855469 19.109375 C 276.808594 19.304688 280.75 19.59375 284.6875 19.980469 C 288.625 20.371094 292.546875 20.851562 296.460938 21.433594 C 300.371094 22.015625 304.269531 22.691406 308.148438 23.460938 C 312.027344 24.234375 315.886719 25.101562 319.722656 26.0625 C 323.558594 27.023438 327.371094 28.078125 331.15625 29.226562 C 334.941406 30.371094 338.695312 31.613281 342.417969 32.945312 C 346.140625 34.277344 349.832031 35.703125 353.484375 37.214844 C 357.140625 38.726562 360.753906 40.332031 364.332031 42.023438 C 367.90625 43.714844 371.4375 45.492188 374.925781 47.355469 C 378.414062 49.21875 381.855469 51.167969 385.246094 53.203125 C 388.640625 55.234375 391.980469 57.351562 395.269531 59.546875 C 398.558594 61.746094 401.789062 64.023438 404.96875 66.378906 C 408.144531 68.734375 411.261719 71.167969 414.320312 73.675781 C 417.378906 76.1875 420.371094 78.769531 423.300781 81.425781 C 426.234375 84.082031 429.097656 86.808594 431.894531 89.605469 C 434.691406 92.402344 437.417969 95.265625 440.074219 98.195312 C 442.730469 101.125 445.3125 104.121094 447.820312 107.179688 C 450.328125 110.234375 452.761719 113.351562 455.117188 116.53125 C 457.476562 119.707031 459.75 122.941406 461.949219 126.226562 C 464.148438 129.515625 466.261719 132.859375 468.296875 136.25 C 470.328125 139.644531 472.277344 143.082031 474.140625 146.570312 C 476.007812 150.058594 477.785156 153.589844 479.476562 157.167969 C 481.167969 160.742188 482.769531 164.359375 484.28125 168.011719 C 485.796875 171.667969 487.21875 175.355469 488.550781 179.078125 C 489.882812 182.804688 491.125 186.558594 492.273438 190.34375 C 493.421875 194.128906 494.476562 197.9375 495.4375 201.777344 C 496.398438 205.613281 497.265625 209.46875 498.035156 213.351562 C 498.808594 217.230469 499.484375 221.125 500.0625 225.039062 C 500.644531 228.949219 501.128906 232.875 501.515625 236.8125 C 501.902344 240.746094 502.195312 244.691406 502.390625 248.640625 C 502.582031 252.589844 502.679688 256.542969 502.679688 260.5 Z M 502.679688 260.5 " fill-opacity="1" fill-rule="nonzero"/></g><g clip-path="url(#c976f6c8e8)"><path fill="#5d6168" d="M 286.882812 159.144531 L 343.207031 361.851562 L 291.734375 360.953125 L 235.113281 159.144531 Z M 286.882812 159.144531 " fill-opacity="1" fill-rule="nonzero"/></g><g clip-path="url(#0e67c63b82)"><path fill="#5d6168" d="M 178.785156 361.851562 L 111.195312 159.144531 L 163.027344 159.144531 L 230.617188 361.851562 Z M 178.785156 361.851562 " fill-opacity="1" fill-rule="nonzero"/></g><g clip-path="url(#4df0ff9f0a)"><g mask="url(#931111bfe4)"><g transform="matrix(1, 0, 0, 1, 178, 159)"><g clip-path="url(#a02970e856)"><g clip-path="url(#c920bf0413)"><path fill="#5d6168" d="M 232.796875 0.144531 L 165.207031 202.851562 L 113.375 202.851562 L 180.964844 0.144531 Z M 0.785156 202.851562 L 52.257812 201.953125 L 108.882812 0.144531 L 57.050781 0.144531 Z M 0.785156 202.851562 " fill-opacity="1" fill-rule="nonzero"/></g></g></g></g></g></svg>